<mxfile host="app.diagrams.net" agent="Mozilla/5.0 (Windows NT 10.0; Win64; x64) AppleWebKit/537.36 (KHTML, like Gecko) Chrome/141.0.0.0 Safari/537.36 Edg/141.0.0.0" version="28.2.5">
  <diagram id="C5RBs43oDa-KdzZeNtuy" name="Page-1">
    <mxGraphModel dx="1591" dy="2058" grid="1" gridSize="10" guides="1" tooltips="1" connect="1" arrows="1" fold="1" page="1" pageScale="1" pageWidth="827" pageHeight="1169" math="0" shadow="0">
      <root>
        <mxCell id="WIyWlLk6GJQsqaUBKTNV-0" />
        <mxCell id="WIyWlLk6GJQsqaUBKTNV-1" parent="WIyWlLk6GJQsqaUBKTNV-0" />
        <mxCell id="UZqX43Rpj6E_O7g7snm4-7" value="ReproductorMP3" style="swimlane;fontStyle=0;align=center;verticalAlign=top;childLayout=stackLayout;horizontal=1;startSize=26;horizontalStack=0;resizeParent=1;resizeLast=0;collapsible=1;marginBottom=0;rounded=0;shadow=0;strokeWidth=1;" parent="WIyWlLk6GJQsqaUBKTNV-1" vertex="1">
          <mxGeometry x="130" y="-470" width="190" height="216" as="geometry">
            <mxRectangle x="560" y="380" width="160" height="26" as="alternateBounds" />
          </mxGeometry>
        </mxCell>
        <mxCell id="UZqX43Rpj6E_O7g7snm4-11" value="" style="line;html=1;strokeWidth=1;align=left;verticalAlign=middle;spacingTop=-1;spacingLeft=3;spacingRight=3;rotatable=0;labelPosition=right;points=[];portConstraint=eastwest;" parent="UZqX43Rpj6E_O7g7snm4-7" vertex="1">
          <mxGeometry y="26" width="190" height="8" as="geometry" />
        </mxCell>
        <mxCell id="UZqX43Rpj6E_O7g7snm4-12" value="+ new()" style="text;align=left;verticalAlign=top;spacingLeft=4;spacingRight=4;overflow=hidden;rotatable=0;points=[[0,0.5],[1,0.5]];portConstraint=eastwest;fontStyle=4" parent="UZqX43Rpj6E_O7g7snm4-7" vertex="1">
          <mxGeometry y="34" width="190" height="26" as="geometry" />
        </mxCell>
        <mxCell id="GCBcyzNS5vGIQ2Xak3aQ-25" value="+ setEstado(EstadoRepMP3): void" style="text;align=left;verticalAlign=top;spacingLeft=4;spacingRight=4;overflow=hidden;rotatable=0;points=[[0,0.5],[1,0.5]];portConstraint=eastwest;" parent="UZqX43Rpj6E_O7g7snm4-7" vertex="1">
          <mxGeometry y="60" width="190" height="26" as="geometry" />
        </mxCell>
        <mxCell id="GCBcyzNS5vGIQ2Xak3aQ-46" value="+ play(): void" style="text;align=left;verticalAlign=top;spacingLeft=4;spacingRight=4;overflow=hidden;rotatable=0;points=[[0,0.5],[1,0.5]];portConstraint=eastwest;" parent="UZqX43Rpj6E_O7g7snm4-7" vertex="1">
          <mxGeometry y="86" width="190" height="26" as="geometry" />
        </mxCell>
        <mxCell id="YJoVHZ8ohPTa9mw98y_0-13" value="+ pause(): void" style="text;align=left;verticalAlign=top;spacingLeft=4;spacingRight=4;overflow=hidden;rotatable=0;points=[[0,0.5],[1,0.5]];portConstraint=eastwest;" parent="UZqX43Rpj6E_O7g7snm4-7" vertex="1">
          <mxGeometry y="112" width="190" height="26" as="geometry" />
        </mxCell>
        <mxCell id="GCBcyzNS5vGIQ2Xak3aQ-27" value="+ stop(): void" style="text;align=left;verticalAlign=top;spacingLeft=4;spacingRight=4;overflow=hidden;rotatable=0;points=[[0,0.5],[1,0.5]];portConstraint=eastwest;" parent="UZqX43Rpj6E_O7g7snm4-7" vertex="1">
          <mxGeometry y="138" width="190" height="26" as="geometry" />
        </mxCell>
        <mxCell id="U2_cQN8DCtw2l2Un_i4g-0" value="+ reproducirCancion(): void" style="text;align=left;verticalAlign=top;spacingLeft=4;spacingRight=4;overflow=hidden;rotatable=0;points=[[0,0.5],[1,0.5]];portConstraint=eastwest;" parent="UZqX43Rpj6E_O7g7snm4-7" vertex="1">
          <mxGeometry y="164" width="190" height="26" as="geometry" />
        </mxCell>
        <mxCell id="U2_cQN8DCtw2l2Un_i4g-35" style="edgeStyle=orthogonalEdgeStyle;rounded=0;orthogonalLoop=1;jettySize=auto;html=1;endArrow=block;endFill=1;" parent="UZqX43Rpj6E_O7g7snm4-7" source="U2_cQN8DCtw2l2Un_i4g-2" edge="1">
          <mxGeometry relative="1" as="geometry">
            <mxPoint y="360" as="targetPoint" />
            <Array as="points">
              <mxPoint x="-50" y="203" />
              <mxPoint x="-50" y="360" />
            </Array>
          </mxGeometry>
        </mxCell>
        <mxCell id="U2_cQN8DCtw2l2Un_i4g-2" value="+ pausarCancion(): void" style="text;align=left;verticalAlign=top;spacingLeft=4;spacingRight=4;overflow=hidden;rotatable=0;points=[[0,0.5],[1,0.5]];portConstraint=eastwest;" parent="UZqX43Rpj6E_O7g7snm4-7" vertex="1">
          <mxGeometry y="190" width="190" height="26" as="geometry" />
        </mxCell>
        <mxCell id="YJoVHZ8ohPTa9mw98y_0-15" value="EstadoRepMP3&#xa;" style="swimlane;fontStyle=2;align=center;verticalAlign=top;childLayout=stackLayout;horizontal=1;startSize=26;horizontalStack=0;resizeParent=1;resizeLast=0;collapsible=1;marginBottom=0;rounded=0;shadow=0;strokeWidth=1;" parent="WIyWlLk6GJQsqaUBKTNV-1" vertex="1">
          <mxGeometry x="135" y="-172" width="190" height="112" as="geometry">
            <mxRectangle x="560" y="380" width="160" height="26" as="alternateBounds" />
          </mxGeometry>
        </mxCell>
        <mxCell id="YJoVHZ8ohPTa9mw98y_0-16" value="" style="line;html=1;strokeWidth=1;align=left;verticalAlign=middle;spacingTop=-1;spacingLeft=3;spacingRight=3;rotatable=0;labelPosition=right;points=[];portConstraint=eastwest;" parent="YJoVHZ8ohPTa9mw98y_0-15" vertex="1">
          <mxGeometry y="26" width="190" height="8" as="geometry" />
        </mxCell>
        <mxCell id="x0IX8e2E6TT8ZVlUjf_a-39" value="+ play(): void" style="text;align=left;verticalAlign=top;spacingLeft=4;spacingRight=4;overflow=hidden;rotatable=0;points=[[0,0.5],[1,0.5]];portConstraint=eastwest;fontStyle=2" parent="YJoVHZ8ohPTa9mw98y_0-15" vertex="1">
          <mxGeometry y="34" width="190" height="26" as="geometry" />
        </mxCell>
        <mxCell id="x0IX8e2E6TT8ZVlUjf_a-40" value="+ pause(): void" style="text;align=left;verticalAlign=top;spacingLeft=4;spacingRight=4;overflow=hidden;rotatable=0;points=[[0,0.5],[1,0.5]];portConstraint=eastwest;fontStyle=2" parent="YJoVHZ8ohPTa9mw98y_0-15" vertex="1">
          <mxGeometry y="60" width="190" height="26" as="geometry" />
        </mxCell>
        <mxCell id="x0IX8e2E6TT8ZVlUjf_a-41" value="+ stop(): void" style="text;align=left;verticalAlign=top;spacingLeft=4;spacingRight=4;overflow=hidden;rotatable=0;points=[[0,0.5],[1,0.5]];portConstraint=eastwest;fontStyle=2" parent="YJoVHZ8ohPTa9mw98y_0-15" vertex="1">
          <mxGeometry y="86" width="190" height="26" as="geometry" />
        </mxCell>
        <mxCell id="GCBcyzNS5vGIQ2Xak3aQ-28" value="SeleccionDeCanciones" style="swimlane;fontStyle=0;align=center;verticalAlign=top;childLayout=stackLayout;horizontal=1;startSize=26;horizontalStack=0;resizeParent=1;resizeLast=0;collapsible=1;marginBottom=0;rounded=0;shadow=0;strokeWidth=1;" parent="WIyWlLk6GJQsqaUBKTNV-1" vertex="1">
          <mxGeometry x="20" y="-10" width="190" height="138" as="geometry">
            <mxRectangle x="560" y="380" width="160" height="26" as="alternateBounds" />
          </mxGeometry>
        </mxCell>
        <mxCell id="GCBcyzNS5vGIQ2Xak3aQ-29" value="" style="line;html=1;strokeWidth=1;align=left;verticalAlign=middle;spacingTop=-1;spacingLeft=3;spacingRight=3;rotatable=0;labelPosition=right;points=[];portConstraint=eastwest;" parent="GCBcyzNS5vGIQ2Xak3aQ-28" vertex="1">
          <mxGeometry y="26" width="190" height="8" as="geometry" />
        </mxCell>
        <mxCell id="x0IX8e2E6TT8ZVlUjf_a-30" value="+ new(ReproductorMP3 r)&#xa;Â " style="text;align=left;verticalAlign=top;spacingLeft=4;spacingRight=4;overflow=hidden;rotatable=0;points=[[0,0.5],[1,0.5]];portConstraint=eastwest;fontStyle=4" parent="GCBcyzNS5vGIQ2Xak3aQ-28" vertex="1">
          <mxGeometry y="34" width="190" height="26" as="geometry" />
        </mxCell>
        <mxCell id="U2_cQN8DCtw2l2Un_i4g-6" value="+ play(): void" style="text;align=left;verticalAlign=top;spacingLeft=4;spacingRight=4;overflow=hidden;rotatable=0;points=[[0,0.5],[1,0.5]];portConstraint=eastwest;" parent="GCBcyzNS5vGIQ2Xak3aQ-28" vertex="1">
          <mxGeometry y="60" width="190" height="26" as="geometry" />
        </mxCell>
        <mxCell id="U2_cQN8DCtw2l2Un_i4g-7" value="+ pause(): void" style="text;align=left;verticalAlign=top;spacingLeft=4;spacingRight=4;overflow=hidden;rotatable=0;points=[[0,0.5],[1,0.5]];portConstraint=eastwest;" parent="GCBcyzNS5vGIQ2Xak3aQ-28" vertex="1">
          <mxGeometry y="86" width="190" height="26" as="geometry" />
        </mxCell>
        <mxCell id="U2_cQN8DCtw2l2Un_i4g-8" value="+ stop(): void" style="text;align=left;verticalAlign=top;spacingLeft=4;spacingRight=4;overflow=hidden;rotatable=0;points=[[0,0.5],[1,0.5]];portConstraint=eastwest;" parent="GCBcyzNS5vGIQ2Xak3aQ-28" vertex="1">
          <mxGeometry y="112" width="190" height="26" as="geometry" />
        </mxCell>
        <mxCell id="GCBcyzNS5vGIQ2Xak3aQ-51" value="Song" style="swimlane;fontStyle=0;align=center;verticalAlign=middle;childLayout=stackLayout;horizontal=1;startSize=40;horizontalStack=0;resizeParent=1;resizeLast=0;collapsible=1;marginBottom=0;rounded=0;shadow=0;strokeWidth=1;" parent="WIyWlLk6GJQsqaUBKTNV-1" vertex="1">
          <mxGeometry x="490" y="-425" width="160" height="126" as="geometry">
            <mxRectangle x="560" y="380" width="160" height="26" as="alternateBounds" />
          </mxGeometry>
        </mxCell>
        <mxCell id="GCBcyzNS5vGIQ2Xak3aQ-52" value="" style="line;html=1;strokeWidth=1;align=left;verticalAlign=middle;spacingTop=-1;spacingLeft=3;spacingRight=3;rotatable=0;labelPosition=right;points=[];portConstraint=eastwest;" parent="GCBcyzNS5vGIQ2Xak3aQ-51" vertex="1">
          <mxGeometry y="40" width="160" height="8" as="geometry" />
        </mxCell>
        <mxCell id="x0IX8e2E6TT8ZVlUjf_a-0" value="+ play(): void" style="text;align=left;verticalAlign=top;spacingLeft=4;spacingRight=4;overflow=hidden;rotatable=0;points=[[0,0.5],[1,0.5]];portConstraint=eastwest;" parent="GCBcyzNS5vGIQ2Xak3aQ-51" vertex="1">
          <mxGeometry y="48" width="160" height="26" as="geometry" />
        </mxCell>
        <mxCell id="x0IX8e2E6TT8ZVlUjf_a-1" value="+ pause(): void" style="text;align=left;verticalAlign=top;spacingLeft=4;spacingRight=4;overflow=hidden;rotatable=0;points=[[0,0.5],[1,0.5]];portConstraint=eastwest;" parent="GCBcyzNS5vGIQ2Xak3aQ-51" vertex="1">
          <mxGeometry y="74" width="160" height="26" as="geometry" />
        </mxCell>
        <mxCell id="x0IX8e2E6TT8ZVlUjf_a-2" value="+ stop(): void" style="text;align=left;verticalAlign=top;spacingLeft=4;spacingRight=4;overflow=hidden;rotatable=0;points=[[0,0.5],[1,0.5]];portConstraint=eastwest;" parent="GCBcyzNS5vGIQ2Xak3aQ-51" vertex="1">
          <mxGeometry y="100" width="160" height="26" as="geometry" />
        </mxCell>
        <mxCell id="U2_cQN8DCtw2l2Un_i4g-37" style="edgeStyle=orthogonalEdgeStyle;rounded=0;orthogonalLoop=1;jettySize=auto;html=1;entryX=1;entryY=0;entryDx=0;entryDy=0;entryPerimeter=0;endArrow=block;endFill=1;" parent="WIyWlLk6GJQsqaUBKTNV-1" target="U2_cQN8DCtw2l2Un_i4g-2" edge="1">
          <mxGeometry relative="1" as="geometry">
            <mxPoint x="390" y="-280" as="targetPoint" />
            <Array as="points">
              <mxPoint x="330" y="-125" />
              <mxPoint x="330" y="-110" />
              <mxPoint x="420" y="-110" />
              <mxPoint x="420" y="-280" />
            </Array>
            <mxPoint x="325" y="-125" as="sourcePoint" />
          </mxGeometry>
        </mxCell>
        <mxCell id="U2_cQN8DCtw2l2Un_i4g-38" value="estado" style="text;html=1;align=center;verticalAlign=middle;whiteSpace=wrap;rounded=0;fillColor=default;" parent="WIyWlLk6GJQsqaUBKTNV-1" vertex="1">
          <mxGeometry x="50" y="-210" width="60" height="20" as="geometry" />
        </mxCell>
        <mxCell id="U2_cQN8DCtw2l2Un_i4g-39" style="edgeStyle=orthogonalEdgeStyle;rounded=0;orthogonalLoop=1;jettySize=auto;html=1;exitX=0.5;exitY=1;exitDx=0;exitDy=0;" parent="WIyWlLk6GJQsqaUBKTNV-1" source="U2_cQN8DCtw2l2Un_i4g-38" target="U2_cQN8DCtw2l2Un_i4g-38" edge="1">
          <mxGeometry relative="1" as="geometry" />
        </mxCell>
        <mxCell id="U2_cQN8DCtw2l2Un_i4g-42" value="reproductor" style="text;html=1;align=center;verticalAlign=middle;whiteSpace=wrap;rounded=0;fillColor=default;" parent="WIyWlLk6GJQsqaUBKTNV-1" vertex="1">
          <mxGeometry x="384" y="-210" width="60" height="20" as="geometry" />
        </mxCell>
        <mxCell id="U2_cQN8DCtw2l2Un_i4g-49" value="" style="endArrow=none;html=1;rounded=0;" parent="WIyWlLk6GJQsqaUBKTNV-1" edge="1">
          <mxGeometry width="50" height="50" relative="1" as="geometry">
            <mxPoint x="100" y="-40" as="sourcePoint" />
            <mxPoint x="370" y="-40" as="targetPoint" />
          </mxGeometry>
        </mxCell>
        <mxCell id="U2_cQN8DCtw2l2Un_i4g-51" value="" style="endArrow=none;html=1;rounded=0;exitX=0.479;exitY=-0.01;exitDx=0;exitDy=0;exitPerimeter=0;" parent="WIyWlLk6GJQsqaUBKTNV-1" edge="1">
          <mxGeometry width="50" height="50" relative="1" as="geometry">
            <mxPoint x="371" y="-11" as="sourcePoint" />
            <mxPoint x="370" y="-40" as="targetPoint" />
          </mxGeometry>
        </mxCell>
        <mxCell id="x0IX8e2E6TT8ZVlUjf_a-26" value="" style="endArrow=none;html=1;rounded=0;exitX=0.479;exitY=-0.01;exitDx=0;exitDy=0;exitPerimeter=0;" parent="WIyWlLk6GJQsqaUBKTNV-1" edge="1">
          <mxGeometry width="50" height="50" relative="1" as="geometry">
            <mxPoint x="101" y="-11" as="sourcePoint" />
            <mxPoint x="100" y="-40" as="targetPoint" />
          </mxGeometry>
        </mxCell>
        <mxCell id="x0IX8e2E6TT8ZVlUjf_a-27" value="" style="endArrow=block;html=1;rounded=0;endFill=0;endSize=7;" parent="WIyWlLk6GJQsqaUBKTNV-1" edge="1">
          <mxGeometry width="50" height="50" relative="1" as="geometry">
            <mxPoint x="229.83" y="-40" as="sourcePoint" />
            <mxPoint x="229.83" y="-60" as="targetPoint" />
          </mxGeometry>
        </mxCell>
        <mxCell id="x0IX8e2E6TT8ZVlUjf_a-33" value="Reproduciendo" style="swimlane;fontStyle=0;align=center;verticalAlign=top;childLayout=stackLayout;horizontal=1;startSize=26;horizontalStack=0;resizeParent=1;resizeLast=0;collapsible=1;marginBottom=0;rounded=0;shadow=0;strokeWidth=1;" parent="WIyWlLk6GJQsqaUBKTNV-1" vertex="1">
          <mxGeometry x="290" y="-10" width="190" height="138" as="geometry">
            <mxRectangle x="560" y="380" width="160" height="26" as="alternateBounds" />
          </mxGeometry>
        </mxCell>
        <mxCell id="x0IX8e2E6TT8ZVlUjf_a-34" value="" style="line;html=1;strokeWidth=1;align=left;verticalAlign=middle;spacingTop=-1;spacingLeft=3;spacingRight=3;rotatable=0;labelPosition=right;points=[];portConstraint=eastwest;" parent="x0IX8e2E6TT8ZVlUjf_a-33" vertex="1">
          <mxGeometry y="26" width="190" height="8" as="geometry" />
        </mxCell>
        <mxCell id="x0IX8e2E6TT8ZVlUjf_a-35" value="+ new(ReproductorMP3 r)&#xa;Â " style="text;align=left;verticalAlign=top;spacingLeft=4;spacingRight=4;overflow=hidden;rotatable=0;points=[[0,0.5],[1,0.5]];portConstraint=eastwest;fontStyle=4" parent="x0IX8e2E6TT8ZVlUjf_a-33" vertex="1">
          <mxGeometry y="34" width="190" height="26" as="geometry" />
        </mxCell>
        <mxCell id="x0IX8e2E6TT8ZVlUjf_a-36" value="+ play(): void" style="text;align=left;verticalAlign=top;spacingLeft=4;spacingRight=4;overflow=hidden;rotatable=0;points=[[0,0.5],[1,0.5]];portConstraint=eastwest;" parent="x0IX8e2E6TT8ZVlUjf_a-33" vertex="1">
          <mxGeometry y="60" width="190" height="26" as="geometry" />
        </mxCell>
        <mxCell id="x0IX8e2E6TT8ZVlUjf_a-37" value="+ pause(): void" style="text;align=left;verticalAlign=top;spacingLeft=4;spacingRight=4;overflow=hidden;rotatable=0;points=[[0,0.5],[1,0.5]];portConstraint=eastwest;" parent="x0IX8e2E6TT8ZVlUjf_a-33" vertex="1">
          <mxGeometry y="86" width="190" height="26" as="geometry" />
        </mxCell>
        <mxCell id="x0IX8e2E6TT8ZVlUjf_a-38" value="+ stop(): void" style="text;align=left;verticalAlign=top;spacingLeft=4;spacingRight=4;overflow=hidden;rotatable=0;points=[[0,0.5],[1,0.5]];portConstraint=eastwest;" parent="x0IX8e2E6TT8ZVlUjf_a-33" vertex="1">
          <mxGeometry y="112" width="190" height="26" as="geometry" />
        </mxCell>
        <mxCell id="_Ix6D_krzIGYznIBJ7gs-0" style="edgeStyle=orthogonalEdgeStyle;rounded=0;orthogonalLoop=1;jettySize=auto;html=1;entryX=0;entryY=0.231;entryDx=0;entryDy=0;entryPerimeter=0;endArrow=block;endFill=1;" edge="1" parent="WIyWlLk6GJQsqaUBKTNV-1" source="YJoVHZ8ohPTa9mw98y_0-13" target="x0IX8e2E6TT8ZVlUjf_a-1">
          <mxGeometry relative="1" as="geometry" />
        </mxCell>
        <mxCell id="_Ix6D_krzIGYznIBJ7gs-1" value="cancionActual" style="text;html=1;align=center;verticalAlign=middle;whiteSpace=wrap;rounded=0;fillColor=default;" vertex="1" parent="WIyWlLk6GJQsqaUBKTNV-1">
          <mxGeometry x="370" y="-360" width="90" height="20" as="geometry" />
        </mxCell>
      </root>
    </mxGraphModel>
  </diagram>
</mxfile>
